<?xml version="1.0" encoding="UTF-8"?>
<svg id="Livello_2" xmlns="http://www.w3.org/2000/svg" version="1.1" viewBox="0 0 593.7 619">
  <!-- Generator: Adobe Illustrator 29.8.1, SVG Export Plug-In . SVG Version: 2.1.1 Build 2)  -->
  <defs>
    <style>
      .st0 {
        fill: #fb4f14;
      }

      .st1 {
        fill: #2f4a65;
      }

      .st2 {
        fill: #104a65;
      }

      .st3 {
        fill: #fb7214;
      }
    </style>
  </defs>
  <rect width="100%" height="100%" fill="#ffffff" />
  <path class="st0" d="M552.3,456.9l-82.8,143.5c-6.6,11.5-18.9,18.6-32.2,18.6h-147.5l93.8-162.4c6.6-11.5,6.6-25.6,0-37.1L225.7,146.1h168.6s158,273.7,158,273.7c6.6,11.5,6.6,25.6,0,37.1h0Z"/>
  <path class="st3" d="M309.8,291.7l-84.3,146-73.5-127.4c-6.6-11.5-6.6-25.6,0-37.1l73.3-127h.4l84.1,145.6Z"/>
  <g>
    <path class="st2" d="M593.7,73c0,12.9-3.3,25-9.2,35.5l-105.9,183.5-84.3-145.9h0s0,0,0,0l-.2-.4-.2.4h-168.1l-147.3-.3c-13.2,0-25.5-7.1-32.1-18.6L5,55.7C-9.3,31,8.6,0,37.2,0h483.5c40.3,0,73,32.7,73,73h0Z"/>
    <path class="st1" d="M383.5,456.6l-93.8,162.4h-129.5c-17.3,0-28.2-18.8-19.5-33.8l169.2-293.1,73.5,127.4c6.6,11.5,6.6,25.6,0,37.1h0Z"/>
  </g>
</svg>
