<?xml version="1.0" encoding="UTF-8"?>
<svg id="Livello_2" data-name="Livello 2" xmlns="http://www.w3.org/2000/svg" viewBox="0 0 593.7 618.97">
  <defs>
    <style>
      .cls-1 {
        fill: #a63c5f;
      }

      .cls-2 {
        fill: #040240;
      }

      .cls-3 {
        fill: #df3c5f;
      }
    </style>
  </defs>
  <g id="Livello_1-2" data-name="Livello 1">
    <path class="cls-3" d="M552.29,456.94l-82.82,143.46c-6.63,11.49-18.89,18.57-32.16,18.57h-147.51l93.76-162.41c6.63-11.49,6.63-25.65,0-37.14L225.73,146.08l168.55.02,158.02,273.7c6.63,11.49,6.63,25.65,0,37.14Z"/>
    <path class="cls-1" d="M309.8,291.68l-84.27,145.95-73.54-127.38c-6.63-11.49-6.63-25.65,0-37.14l73.34-127.03h.4l84.07,145.6Z"/>
    <g>
      <path class="cls-2" d="M593.7,73.04c0,12.9-3.35,25.02-9.23,35.54l-105.93,183.48-84.26-145.95v-.02s-.01,0-.01,0l-.2-.35-.2.35h-168.12l-147.33-.3c-13.24-.03-25.47-7.1-32.09-18.57L5.03,55.71C-9.26,30.95,8.6,0,37.19,0h483.53v.07c40.3,0,72.97,32.67,72.97,72.97Z"/>
      <path class="cls-2" d="M383.55,456.57l-93.77,162.4h-129.5c-17.34,0-28.18-18.77-19.51-33.79l169.23-293.12,73.54,127.38c6.63,11.49,6.63,25.65,0,37.14Z"/>
    </g>
  </g>
</svg>